<!DOCTYPE svg PUBLIC "-//W3C//DTD SVG 1.1//EN" "https://www.w3.org/Graphics/SVG/1.1/DTD/svg11.dtd"><svg xmlns="http://www.w3.org/2000/svg" class="sc-GEcJY eLjYMx graph" width="1104" height="668"><g transform="translate(12,12)" class="new-look-graph"><g class="nodes"><g class="node-container" transform="translate(400,22)"><g><circle class="sc-jrQzUz enWSfS shape" r="22"/><text class="sc-pVTma cGjrSs label"><tspan xml:space="preserve" text-anchor="middle" alignment-baseline="central">Start</tspan></text></g></g><g class="node-container" transform="translate(400,103.5)"><g class="sc-jRQAMF eRnhep node state Pass" data-state-id="RoutePass" data-state-type="Pass"><g class="new-look-state-node "><rect x="-120" y="-24.5" width="240" height="49" rx="3" ry="3"/><g class="handle" transform="translate(-120,-24.5)"><path d="M5,16 L5,34 M8,16 L8,34"/></g><g class="icon" transform="translate(-104,-24)"><rect fill="var(--color-background-container-header-2Hjv9p, #fafafa)" x="0.0361026108" y="0.0181291967" width="48" height="48"/><line x1="47.5" y1="0.49122807" x2="47.5" y2="47.5" stroke="var(--color-text-home-header-secondary-1Ph38f, #d5dbdb)" stroke-linecap="square"/><line x1="0.5" y1="0.49122807" x2="0.5" y2="47.5" stroke="var(--color-text-home-header-secondary-1Ph38f, #d5dbdb)" stroke-linecap="square"/><use href="#icon-flow-pass"/></g><g class="text-lines" transform="translate(-48,-24.5)"><text transform="translate(0,17)" class="line1"><tspan xml:space="preserve" text-anchor="start">Pass state</tspan></text><text transform="translate(0,35.5)" class="line2 label"><tspan xml:space="preserve" text-anchor="start">RoutePass</tspan></text></g></g></g></g><g class="node-container" transform="translate(400,187.5)"><g class="sc-jRQAMF eRnhep node state Task" data-state-id="Call External APIGW" data-state-type="Task"><g class="new-look-state-node "><rect x="-120" y="-24.5" width="240" height="49" rx="3" ry="3"/><g class="handle" transform="translate(-120,-24.5)"><path d="M5,16 L5,34 M8,16 L8,34"/></g><g class="icon" transform="translate(-104,-24)"><rect fill="var(--color-background-container-header-2Hjv9p, #fafafa)" x="0.0361026108" y="0.0181291967" width="48" height="48"/><line x1="47.5" y1="0.49122807" x2="47.5" y2="47.5" stroke="var(--color-text-home-header-secondary-1Ph38f, #d5dbdb)" stroke-linecap="square"/><line x1="0.5" y1="0.49122807" x2="0.5" y2="47.5" stroke="var(--color-text-home-header-secondary-1Ph38f, #d5dbdb)" stroke-linecap="square"/><use href="#icon-service-ag"/></g><g class="text-lines" transform="translate(-48,-24.5)"><text transform="translate(0,17)" class="line1"><tspan xml:space="preserve" text-anchor="start">API Gateway: Invoke</tspan></text><text transform="translate(0,35.5)" class="line2 label"><tspan xml:space="preserve" text-anchor="start">Call External APIGW</tspan></text></g></g></g></g><g class="node-container" transform="translate(400,271.5)"><g class="sc-jRQAMF eRnhep node state Task" data-state-id="Get Internal User" data-state-type="Task"><g class="new-look-state-node "><rect x="-120" y="-24.5" width="240" height="49" rx="3" ry="3"/><g class="handle" transform="translate(-120,-24.5)"><path d="M5,16 L5,34 M8,16 L8,34"/></g><g class="icon" transform="translate(-104,-24)"><rect fill="var(--color-background-container-header-2Hjv9p, #fafafa)" x="0.0361026108" y="0.0181291967" width="48" height="48"/><line x1="47.5" y1="0.49122807" x2="47.5" y2="47.5" stroke="var(--color-text-home-header-secondary-1Ph38f, #d5dbdb)" stroke-linecap="square"/><line x1="0.5" y1="0.49122807" x2="0.5" y2="47.5" stroke="var(--color-text-home-header-secondary-1Ph38f, #d5dbdb)" stroke-linecap="square"/><use href="#icon-service-ddb"/></g><g class="text-lines" transform="translate(-48,-24.5)"><text transform="translate(0,17)" class="line1"><tspan xml:space="preserve" text-anchor="start">DynamoDB: GetItem</tspan></text><text transform="translate(0,35.5)" class="line2 label"><tspan xml:space="preserve" text-anchor="start">Get Internal User</tspan></text></g></g></g></g><g class="node-container" transform="translate(400,355.5)"><g class="sc-jRQAMF eRnhep node state Choice" data-state-id="User Locked?" data-state-type="Choice"><g class="new-look-state-node "><rect x="-120" y="-24.5" width="240" height="49" rx="3" ry="3"/><g class="handle" transform="translate(-120,-24.5)"><path d="M5,16 L5,34 M8,16 L8,34"/></g><g class="icon" transform="translate(-104,-24)"><rect fill="var(--color-background-container-header-2Hjv9p, #fafafa)" x="0.0361026108" y="0.0181291967" width="48" height="48"/><line x1="47.5" y1="0.49122807" x2="47.5" y2="47.5" stroke="var(--color-text-home-header-secondary-1Ph38f, #d5dbdb)" stroke-linecap="square"/><line x1="0.5" y1="0.49122807" x2="0.5" y2="47.5" stroke="var(--color-text-home-header-secondary-1Ph38f, #d5dbdb)" stroke-linecap="square"/><use href="#icon-flow-choice"/></g><g class="text-lines" transform="translate(-48,-24.5)"><text transform="translate(0,17)" class="line1"><tspan xml:space="preserve" text-anchor="start">Choice state</tspan></text><text transform="translate(0,35.5)" class="line2 label"><tspan xml:space="preserve" text-anchor="start">User Locked?</tspan></text></g></g></g></g><g class="node-container" transform="translate(400,456)"><g class="sc-jRQAMF eRnhep node state Task" data-state-id="Add Internal User" data-state-type="Task"><g class="new-look-state-node "><rect x="-120" y="-24.5" width="240" height="49" rx="3" ry="3"/><g class="handle" transform="translate(-120,-24.5)"><path d="M5,16 L5,34 M8,16 L8,34"/></g><g class="icon" transform="translate(-104,-24)"><rect fill="var(--color-background-container-header-2Hjv9p, #fafafa)" x="0.0361026108" y="0.0181291967" width="48" height="48"/><line x1="47.5" y1="0.49122807" x2="47.5" y2="47.5" stroke="var(--color-text-home-header-secondary-1Ph38f, #d5dbdb)" stroke-linecap="square"/><line x1="0.5" y1="0.49122807" x2="0.5" y2="47.5" stroke="var(--color-text-home-header-secondary-1Ph38f, #d5dbdb)" stroke-linecap="square"/><use href="#icon-service-ddb"/></g><g class="text-lines" transform="translate(-48,-24.5)"><text transform="translate(0,17)" class="line1"><tspan xml:space="preserve" text-anchor="start">DynamoDB: PutItem</tspan></text><text transform="translate(0,35.5)" class="line2 label"><tspan xml:space="preserve" text-anchor="start">Add Internal User</tspan></text></g></g></g></g><g class="node-container" transform="translate(120,456)"><g class="sc-jRQAMF eRnhep node state Pass" data-state-id="No Changes to User" data-state-type="Pass"><g class="new-look-state-node "><rect x="-120" y="-24.5" width="240" height="49" rx="3" ry="3"/><g class="handle" transform="translate(-120,-24.5)"><path d="M5,16 L5,34 M8,16 L8,34"/></g><g class="icon" transform="translate(-104,-24)"><rect fill="var(--color-background-container-header-2Hjv9p, #fafafa)" x="0.0361026108" y="0.0181291967" width="48" height="48"/><line x1="47.5" y1="0.49122807" x2="47.5" y2="47.5" stroke="var(--color-text-home-header-secondary-1Ph38f, #d5dbdb)" stroke-linecap="square"/><line x1="0.5" y1="0.49122807" x2="0.5" y2="47.5" stroke="var(--color-text-home-header-secondary-1Ph38f, #d5dbdb)" stroke-linecap="square"/><use href="#icon-flow-pass"/></g><g class="text-lines" transform="translate(-48,-24.5)"><text transform="translate(0,17)" class="line1"><tspan xml:space="preserve" text-anchor="start">Pass state</tspan></text><text transform="translate(0,35.5)" class="line2 label"><tspan xml:space="preserve" text-anchor="start">No Changes to User</tspan></text></g></g></g></g><g class="node-container" transform="translate(680,456)"><g class="sc-jRQAMF eRnhep node state Task" data-state-id="Update User Name" data-state-type="Task"><g class="new-look-state-node "><rect x="-120" y="-24.5" width="240" height="49" rx="3" ry="3"/><g class="handle" transform="translate(-120,-24.5)"><path d="M5,16 L5,34 M8,16 L8,34"/></g><g class="icon" transform="translate(-104,-24)"><rect fill="var(--color-background-container-header-2Hjv9p, #fafafa)" x="0.0361026108" y="0.0181291967" width="48" height="48"/><line x1="47.5" y1="0.49122807" x2="47.5" y2="47.5" stroke="var(--color-text-home-header-secondary-1Ph38f, #d5dbdb)" stroke-linecap="square"/><line x1="0.5" y1="0.49122807" x2="0.5" y2="47.5" stroke="var(--color-text-home-header-secondary-1Ph38f, #d5dbdb)" stroke-linecap="square"/><use href="#icon-service-ddb"/></g><g class="text-lines" transform="translate(-48,-24.5)"><text transform="translate(0,17)" class="line1"><tspan xml:space="preserve" text-anchor="start">DynamoDB: UpdateItem</tspan></text><text transform="translate(0,35.5)" class="line2 label"><tspan xml:space="preserve" text-anchor="start">Update User Name</tspan></text></g></g></g></g><g class="node-container" transform="translate(960,540)"><g class="sc-jRQAMF eRnhep node state Pass" data-state-id="User Was Locked" data-state-type="Pass"><g class="new-look-state-node "><rect x="-120" y="-24.5" width="240" height="49" rx="3" ry="3"/><g class="handle" transform="translate(-120,-24.5)"><path d="M5,16 L5,34 M8,16 L8,34"/></g><g class="icon" transform="translate(-104,-24)"><rect fill="var(--color-background-container-header-2Hjv9p, #fafafa)" x="0.0361026108" y="0.0181291967" width="48" height="48"/><line x1="47.5" y1="0.49122807" x2="47.5" y2="47.5" stroke="var(--color-text-home-header-secondary-1Ph38f, #d5dbdb)" stroke-linecap="square"/><line x1="0.5" y1="0.49122807" x2="0.5" y2="47.5" stroke="var(--color-text-home-header-secondary-1Ph38f, #d5dbdb)" stroke-linecap="square"/><use href="#icon-flow-pass"/></g><g class="text-lines" transform="translate(-48,-24.5)"><text transform="translate(0,17)" class="line1"><tspan xml:space="preserve" text-anchor="start">Pass state</tspan></text><text transform="translate(0,35.5)" class="line2 label"><tspan xml:space="preserve" text-anchor="start">User Was Locked</tspan></text></g></g></g></g><g class="node-container" transform="translate(540,621.5)"><g><circle class="sc-jrQzUz enWSfS shape" r="22"/><text class="sc-pVTma cGjrSs label"><tspan xml:space="preserve" text-anchor="middle" alignment-baseline="central">End</tspan></text></g></g><g class="node-container" transform="translate(400,540)"><g class="sc-jRQAMF eRnhep node state Pass" data-state-id="User Inserted" data-state-type="Pass"><g class="new-look-state-node "><rect x="-120" y="-24.5" width="240" height="49" rx="3" ry="3"/><g class="handle" transform="translate(-120,-24.5)"><path d="M5,16 L5,34 M8,16 L8,34"/></g><g class="icon" transform="translate(-104,-24)"><rect fill="var(--color-background-container-header-2Hjv9p, #fafafa)" x="0.0361026108" y="0.0181291967" width="48" height="48"/><line x1="47.5" y1="0.49122807" x2="47.5" y2="47.5" stroke="var(--color-text-home-header-secondary-1Ph38f, #d5dbdb)" stroke-linecap="square"/><line x1="0.5" y1="0.49122807" x2="0.5" y2="47.5" stroke="var(--color-text-home-header-secondary-1Ph38f, #d5dbdb)" stroke-linecap="square"/><use href="#icon-flow-pass"/></g><g class="text-lines" transform="translate(-48,-24.5)"><text transform="translate(0,17)" class="line1"><tspan xml:space="preserve" text-anchor="start">Pass state</tspan></text><text transform="translate(0,35.5)" class="line2 label"><tspan xml:space="preserve" text-anchor="start">User Inserted</tspan></text></g></g></g></g><g class="node-container" transform="translate(680,540)"><g class="sc-jRQAMF eRnhep node state Pass" data-state-id="User Was Updated" data-state-type="Pass"><g class="new-look-state-node "><rect x="-120" y="-24.5" width="240" height="49" rx="3" ry="3"/><g class="handle" transform="translate(-120,-24.5)"><path d="M5,16 L5,34 M8,16 L8,34"/></g><g class="icon" transform="translate(-104,-24)"><rect fill="var(--color-background-container-header-2Hjv9p, #fafafa)" x="0.0361026108" y="0.0181291967" width="48" height="48"/><line x1="47.5" y1="0.49122807" x2="47.5" y2="47.5" stroke="var(--color-text-home-header-secondary-1Ph38f, #d5dbdb)" stroke-linecap="square"/><line x1="0.5" y1="0.49122807" x2="0.5" y2="47.5" stroke="var(--color-text-home-header-secondary-1Ph38f, #d5dbdb)" stroke-linecap="square"/><use href="#icon-flow-pass"/></g><g class="text-lines" transform="translate(-48,-24.5)"><text transform="translate(0,17)" class="line1"><tspan xml:space="preserve" text-anchor="start">Pass state</tspan></text><text transform="translate(0,35.5)" class="line2 label"><tspan xml:space="preserve" text-anchor="start">User Was Updated</tspan></text></g></g></g></g></g><g class="edges"><g class="sc-gKckTs hSDKox edge"><path id="state-RoutePass:state-Call External APIGW:normal" d="M400,128L400,130.91666666666666C400,133.83333333333334,400,139.66666666666666,400,145.5C400,151.33333333333334,400,157.16666666666666,400,160.08333333333334L400,163" marker-end="url(#arrowhead)" fill="none"/></g><g class="sc-gKckTs hSDKox edge"><path id="start:state-RoutePass" d="M400,44L400,46.916666666666664C400,49.833333333333336,400,55.666666666666664,400,61.5C400,67.33333333333333,400,73.16666666666667,400,76.08333333333333L400,79" marker-end="url(#arrowhead)" fill="none"/></g><g class="sc-gKckTs hSDKox edge"><path id="state-Call External APIGW:state-Get Internal User:normal" d="M400,212L400,214.91666666666666C400,217.83333333333334,400,223.66666666666666,400,229.5C400,235.33333333333334,400,241.16666666666666,400,244.08333333333334L400,247" marker-end="url(#arrowhead)" fill="none"/></g><g class="sc-gKckTs hSDKox edge"><path id="state-Get Internal User:state-User Locked?:normal" d="M400,296L400,298.9166666666667C400,301.8333333333333,400,307.6666666666667,400,313.5C400,319.3333333333333,400,325.1666666666667,400,328.0833333333333L400,331" marker-end="url(#arrowhead)" fill="none"/></g><g class="sc-gKckTs hSDKox edge"><path id="state-User Locked?:state-Add Internal User:choiceRule:0" d="M400,380L400,384.2916666666667C400,388.5833333333333,400,397.1666666666667,400,405.75C400,414.3333333333333,400,422.9166666666667,400,427.2083333333333L400,431.5" marker-end="url(#arrowhead)" fill="none"/><g class="edge-label" transform="translate(400,405.75)"><rect x="-22" y="-8.25" width="44" height="16.5" class="sc-iqsfdx fYdb"/><text class="sc-crHlIS STZed label"><tspan xml:space="preserve" text-anchor="middle" alignment-baseline="central">Rule #1</tspan></text></g></g><g class="sc-gKckTs hSDKox edge"><path id="state-User Locked?:state-No Changes to User:choiceRule:1" d="M280,374.52208201892745L247.16666666666666,379.7267350157729C214.33333333333334,384.9313880126183,148.66666666666666,395.34069400630915,118.9933665008292,404.83701366982126C89.32006633499172,414.3333333333333,95.64013266998342,422.9166666666667,98.80016583747927,427.2083333333333L101.96019900497512,431.5" marker-end="url(#arrowhead)" fill="none"/><g class="edge-label" transform="translate(118.9933665008292,404.83701366982126)"><rect x="-22" y="-8.25" width="44" height="16.5" class="sc-iqsfdx fYdb"/><text class="sc-crHlIS STZed label"><tspan xml:space="preserve" text-anchor="middle" alignment-baseline="central">Rule #2</tspan></text></g></g><g class="sc-gKckTs hSDKox edge"><path id="state-User Locked?:state-Update User Name:choiceRule:2" d="M520,377.0357142857143L546.6666666666666,381.8214285714286C573.3333333333334,386.60714285714283,626.6666666666666,396.1785714285714,653.3333333333334,405.25595238095235C680,414.3333333333333,680,422.9166666666667,680,427.2083333333333L680,431.5" marker-end="url(#arrowhead)" fill="none"/><g class="edge-label" transform="translate(653.3333333333334,405.25595238095235)"><rect x="-22" y="-8.25" width="44" height="16.5" class="sc-iqsfdx fYdb"/><text class="sc-crHlIS STZed label"><tspan xml:space="preserve" text-anchor="middle" alignment-baseline="central">Rule #3</tspan></text></g></g><g class="sc-gKckTs hSDKox edge"><path id="state-User Locked?:state-User Was Locked:choiceRule:3" d="M520,366.26785714285717L593.3333333333334,372.8482142857143C666.6666666666666,379.4285714285714,813.3333333333334,392.5892857142857,886.6666666666666,407.54464285714283C960,422.5,960,439.25,960,454.625C960,470,960,484,960,493.9166666666667C960,503.8333333333333,960,509.6666666666667,960,512.5833333333334L960,515.5" marker-end="url(#arrowhead)" fill="none"/><g class="edge-label" transform="translate(886.6666666666666,407.54464285714283)"><rect x="-22" y="-8.25" width="44" height="16.5" class="sc-iqsfdx fYdb"/><text class="sc-crHlIS STZed label"><tspan xml:space="preserve" text-anchor="middle" alignment-baseline="central">Rule #4</tspan></text></g></g><g class="sc-gKckTs hSDKox edge"><path id="state-User Locked?:state-No Changes to User:choiceDefault" d="M313.7014925373134,380L298.5845771144279,384.2916666666667C283.4676616915423,388.5833333333333,253.23383084577117,397.1666666666667,229.3200663349917,405.75C205.40630182421228,414.3333333333333,187.81260364842456,422.9166666666667,179.01575456053067,427.2083333333333L170.2189054726368,431.5" marker-end="url(#arrowhead)" fill="none"/><g class="edge-label" transform="translate(229.3200663349917,405.75)"><rect x="-22" y="-8.25" width="44" height="16.5" class="sc-iqsfdx fYdb"/><text class="sc-crHlIS STZed label"><tspan xml:space="preserve" text-anchor="middle" alignment-baseline="central">Default</tspan></text></g></g><g class="sc-gKckTs hSDKox edge"><path id="state-No Changes to User:end:normal" d="M120,480.5L120,483.4166666666667C120,486.3333333333333,120,492.1666666666667,120,502.0833333333333C120,512,120,526,120,540C120,554,120,568,186.3494422996346,581.240007073418C252.69888459926923,594.480014146836,385.39776919853847,606.960028293672,451.74721149817304,613.2000353670901L518.0966537978077,619.4400424405081" marker-end="url(#arrowhead)" fill="none"/></g><g class="sc-gKckTs hSDKox edge"><path id="state-Add Internal User:state-User Inserted:normal" d="M400,480.5L400,483.4166666666667C400,486.3333333333333,400,492.1666666666667,400,498C400,503.8333333333333,400,509.6666666666667,400,512.5833333333334L400,515.5" marker-end="url(#arrowhead)" fill="none"/></g><g class="sc-gKckTs hSDKox edge"><path id="state-User Inserted:end:normal" d="M400,564.5L400,567.4166666666666C400,570.3333333333334,400,576.1666666666666,419.8044356314808,584.6710133865012C439.60887126296166,593.1753601063356,479.21774252592326,604.3507202126713,499.0221781574041,609.938400265839L518.8266137888849,615.5260803190068" marker-end="url(#arrowhead)" fill="none"/></g><g class="sc-gKckTs hSDKox edge"><path id="state-Update User Name:state-User Was Updated:normal" d="M680,480.5L680,483.4166666666667C680,486.3333333333333,680,492.1666666666667,680,498C680,503.8333333333333,680,509.6666666666667,680,512.5833333333334L680,515.5" marker-end="url(#arrowhead)" fill="none"/></g><g class="sc-gKckTs hSDKox edge"><path id="state-User Was Updated:end:normal" d="M680,564.5L680,567.4166666666666C680,570.3333333333334,680,576.1666666666666,660.1955643685192,584.6710133865012C640.3911287370383,593.1753601063356,600.7822574740768,604.3507202126713,580.977821842596,609.938400265839L561.1733862111151,615.5260803190068" marker-end="url(#arrowhead)" fill="none"/></g><g class="sc-gKckTs hSDKox edge"><path id="state-User Was Locked:end:normal" d="M960,564.5L960,567.4166666666666C960,570.3333333333334,960,576.1666666666666,893.6505577003654,585.3233404067513C827.3011154007309,594.480014146836,694.6022308014616,606.960028293672,628.252788501827,613.2000353670901L561.9033462021923,619.4400424405081" marker-end="url(#arrowhead)" fill="none"/></g></g><defs><marker id="arrowhead" markerWidth="8" markerHeight="6" refX="7" refY="3" orient="auto" class="sc-furvIG lkLLxz"><polygon points="0 0, 8 3, 0 6"/></marker><marker id="highlighted-arrowhead" markerWidth="6" markerHeight="4" refX="5" refY="2" orient="auto" class="sc-furvIG lkLLxz"><polygon points="0 0, 6 2, 0 4"/></marker><marker id="error-arrowhead" markerWidth="6" markerHeight="4" refX="5" refY="2" orient="auto" class="sc-furvIG lkLLxz"><polygon points="0 0, 6 2, 0 4"/></marker><marker id="large-arrowhead" markerWidth="10" markerHeight="8" refX="9" refY="4" orient="auto" class="sc-furvIG lkLLxz"><polygon points="0 0, 10 4, 0 8"/></marker><marker id="large-highlighted-arrowhead" markerWidth="5.5" markerHeight="4" refX="4.5" refY="2" orient="auto" class="sc-furvIG lkLLxz"><polygon points="0 0, 5.5 2, 0 4"/></marker><marker id="large-error-arrowhead" markerWidth="10" markerHeight="8" refX="9" refY="4" orient="auto" class="sc-furvIG lkLLxz"><polygon points="0 0, 10 4, 0 8"/></marker><linearGradient x1="0%" y1="100%" x2="100%" y2="0%" id="gradient-orange"><stop stop-color="#C8511B" offset="0%"/><stop stop-color="#FF9900" offset="100%"/></linearGradient><linearGradient x1="0%" y1="100%" x2="100%" y2="0%" id="gradient-turquoise"><stop stop-color="#055F4E" offset="0%"/><stop stop-color="#56C0A7" offset="100%"/></linearGradient><linearGradient x1="0%" y1="100%" x2="100%" y2="0%" id="gradient-blue"><stop stop-color="#2E27AD" offset="0%"/><stop stop-color="#527FFF" offset="100%"/></linearGradient><linearGradient x1="0%" y1="100%" x2="100%" y2="0%" id="gradient-pink"><stop stop-color="#B0084D" offset="0%"/><stop stop-color="#FF4F8B" offset="100%"/></linearGradient><linearGradient x1="0%" y1="100%" x2="100%" y2="0%" id="gradient-red"><stop stop-color="#BD0816" offset="0%"/><stop stop-color="#FF5252" offset="100%"/></linearGradient><linearGradient x1="0%" y1="100%" x2="100%" y2="0%" id="gradient-green"><stop stop-color="#1B660F" offset="0%"/><stop stop-color="#6CAE3E" offset="100%"/></linearGradient><linearGradient x1="0%" y1="100%" x2="100%" y2="0%" id="gradient-purple"><stop stop-color="#4D27A8" offset="0%"/><stop stop-color="#A166FF" offset="100%"/></linearGradient><linearGradient x1="0%" y1="100%" x2="100%" y2="0%" id="gradient-grey"><stop stop-color="#DCDCDC" offset="0%"/><stop stop-color="#F6F5F7" offset="100%"/></linearGradient>,<linearGradient x1="0%" y1="100%" x2="100%" y2="0%" id="gradient-ag"><stop stop-color="#BC1356" offset="0%"/><stop stop-color="#F34482" offset="100%"/></linearGradient><linearGradient x1="0%" y1="100%" x2="100%" y2="0%" id="gradient-athena"><stop stop-color="#5930B5" offset="0%"/><stop stop-color="#945DF2" offset="100%"/></linearGradient><linearGradient x1="0%" y1="100%" x2="100%" y2="0%" id="gradient-emr"><stop stop-color="#5930B5" offset="0%"/><stop stop-color="#945DF2" offset="100%"/></linearGradient><linearGradient x1="0%" y1="100%" x2="100%" y2="0%" id="gradient-glue"><stop stop-color="#5930B5" offset="0%"/><stop stop-color="#945DF2" offset="100%"/></linearGradient><linearGradient x1="0%" y1="100%" x2="100%" y2="0%" id="gradient-sns"><stop stop-color="#BC1356" offset="0%"/><stop stop-color="#F34482" offset="100%"/></linearGradient><linearGradient x1="0%" y1="100%" x2="100%" y2="0%" id="gradient-states"><stop stop-color="#BC1356" offset="0%"/><stop stop-color="#F34482" offset="100%"/></linearGradient><linearGradient x1="0%" y1="100%" x2="100%" y2="0%" id="gradient-generic"><stop stop-color="#ccc" offset="0%"/><stop stop-color="#ddd" offset="100%"/></linearGradient><g stroke="none" stroke-width="1" fill="none" fill-rule="evenodd" id="icon-flow-pass"><g transform="translate(10.500000, 8.750000)" fill="#0073BB" fill-rule="nonzero"><path d="M13.8217363,31.2803301 L13.7368454,31.3532508 L13.7368454,31.3532508 L13.6534426,31.407053 L13.6534426,31.407053 L13.6052878,31.4313839 L13.6052878,31.4313839 L13.5081671,31.4681458 L13.5081671,31.4681458 L13.4513711,31.4828395 L13.4513711,31.4828395 L13.3846755,31.4942127 L13.3846755,31.4942127 L13.3412428,31.498357 L13.3412428,31.498357 L13.241495,31.498357 L13.241495,31.498357 L13.1802045,31.4917588 L13.1802045,31.4917588 L13.1314644,31.4828361 L13.1314644,31.4828361 L13.0652921,31.4652652 L12.9776235,31.4314294 L12.9776235,31.4314294 L12.9293782,31.4070608 L12.9293782,31.4070608 L12.8294824,31.3409596 L12.7610762,31.2803301 L12.7610762,31.2803301 L8.26107616,26.7803301 C7.96818295,26.4874369 7.96818295,26.0125631 8.26107616,25.7196699 C8.52734273,25.4534034 8.94400641,25.4291973 9.2376179,25.6470518 L9.32173634,25.7196699 L12.5814063,28.979 L12.581,19.7495522 L3.5,19.75 C1.6314366,19.75 0.104873551,18.2857224 0.00517886273,16.4420352 L0,16.25 L0,12.25 C0,10.3814366 1.4642776,8.85487355 3.3079648,8.75517886 L3.5,8.75 L11.686,8.74955216 L11.686,10.2495522 L3.5,10.25 C2.4456382,10.25 1.58183488,11.0658778 1.50548574,12.1007377 L1.5,12.25 L1.5,16.25 C1.5,17.3043618 2.31587779,18.1681651 3.35073766,18.2445143 L3.5,18.25 L22.5,18.25 C23.5543618,18.25 24.4181651,17.4341222 24.4945143,16.3992623 L24.5,16.25 L24.5,12.25 C24.5,11.1956382 23.6841222,10.3318349 22.6492623,10.2554857 L22.5,10.25 L15.686,10.2495522 L15.686,8.74955216 L22.5,8.75 C24.3685634,8.75 25.8951264,10.2142776 25.9948211,12.0579648 L26,12.25 L26,16.25 C26,18.1185634 24.5357224,19.6451264 22.6920352,19.7448211 L22.5,19.75 L14.081,19.7495522 L14.0814063,28.899 L17.2610762,25.7196699 L17.3451946,25.6470518 C17.6388061,25.4291973 18.0554698,25.4534034 18.3217363,25.7196699 C18.5880029,25.9859365 18.6122089,26.4026002 18.3943545,26.6962117 L18.3217363,26.7803301 L13.8217363,31.2803301 Z"/><polygon points="14.0818291 0 14.0818291 14.5 12.5818291 14.5 12.5818291 0"/></g></g><g stroke="none" stroke-width="1" fill="none" fill-rule="evenodd" id="icon-flow-choice"><g transform="translate(9.252020, 8.729185)" fill="#0073BB" fill-rule="nonzero"><path d="M13.7176503,0.219669914 C13.9839168,-0.0465966484 14.4005805,-0.0708026996 14.694192,0.147051761 L14.7783104,0.219669914 L26.7991257,12.2404852 C27.0653923,12.5067518 27.0895983,12.9234154 26.8717439,13.2170269 L26.7991257,13.3011454 L19.848,20.251 L27.063,27.58 L27.0635443,24.4725437 C27.0635443,24.0583302 27.3993308,23.7225437 27.8135443,23.7225437 C28.1901021,23.7225437 28.5018441,24.0000532 28.5554124,24.3617142 L28.5635443,24.4725437 L28.5635443,29.4222912 C28.5635443,29.4735748 28.5583971,29.5236562 28.5485912,29.5720469 L28.5290567,29.6477745 L28.4912259,29.7440224 L28.4674556,29.7898473 L28.4399848,29.8348433 L28.3922808,29.8993609 L28.3266417,29.9693147 L28.2903734,30.0012261 L28.2103598,30.0588356 L28.1372883,30.0990133 L28.0408973,30.1372113 L27.9243738,30.1641593 C27.8841362,30.1698129 27.8491297,30.1722912 27.8135443,30.1722912 L22.8637969,30.1722912 C22.4495833,30.1722912 22.1137969,29.8365048 22.1137969,29.4222912 C22.1137969,29.0457334 22.3913063,28.7339914 22.7529674,28.6804231 L22.8637969,28.6722912 L26.032,28.672 L18.787,21.312 L14.7783104,25.3219606 C14.5120439,25.5882272 14.0953802,25.6124333 13.8017687,25.3945788 L13.7176503,25.3219606 L9.63,21.234 L2.386,28.671 L5.69974747,28.6722912 L5.81057697,28.6804231 C6.17223802,28.7339914 6.44974747,29.0457334 6.44974747,29.4222912 C6.44974747,29.801987 6.16759359,30.1157822 5.80151803,30.1654446 L5.69974747,30.1722912 L0.75,30.1722912 L0.645175107,30.1650238 L0.571316134,30.150876 L0.491748953,30.1266437 L0.399838514,30.0857012 L0.323957521,30.0396165 L0.243169757,29.975129 L0.170912131,29.8989347 L0.109961584,29.8134582 L0.0656949991,29.7297074 L0.0297396696,29.6320944 L0.0076057584,29.5294944 L6.67910172e-13,29.4222912 L6.67910172e-13,24.4725437 L0.00813192572,24.3617142 C0.0617002376,24.0000532 0.373442216,23.7225437 0.75,23.7225437 C1.12969577,23.7225437 1.44349096,24.0046976 1.49315338,24.3707732 L1.5,24.4725437 L1.499,27.433 L8.569,20.174 L1.69683498,13.3011454 C1.43056842,13.0348788 1.40636237,12.6182151 1.62421683,12.3246036 L1.69683498,12.2404852 L13.7176503,0.219669914 Z M14.3527697,23.728356 L25.2081355,12.7708153 L14.2479803,1.81066017 L3.28782524,12.7708153 L9.616,19.099 L14.3527697,23.728356 Z"/><path d="M15.2319803,14.0468153 L15.2319803,13.2668153 C16.0033137,12.8508153 16.5579803,12.4218153 16.8959803,11.9798153 C17.2339803,11.5378153 17.4029803,11.0178153 17.4029803,10.4198153 C17.4029803,9.65714861 17.151647,9.06131528 16.6489803,8.63231528 C16.1463137,8.20331528 15.448647,7.98881528 14.5559803,7.98881528 C13.6979803,7.98881528 12.874647,8.19248195 12.0859803,8.59981528 L12.0859803,8.59981528 L12.0859803,10.3288153 C12.8313137,9.98214861 13.4943137,9.80881528 14.0749803,9.80881528 C14.395647,9.80881528 14.6404803,9.87814861 14.8094803,10.0168153 C14.9784803,10.1554819 15.0629803,10.3591486 15.0629803,10.6278153 C15.0629803,10.9138153 14.9763137,11.1651486 14.8029803,11.3818153 C14.629647,11.5984819 14.343647,11.8151486 13.9449803,12.0318153 L13.9449803,12.0318153 L13.1909803,12.4348153 L13.3339803,14.0468153 L15.2319803,14.0468153 Z M14.3089803,17.4398153 C14.7249803,17.4398153 15.0608137,17.3141486 15.3164803,17.0628153 C15.572147,16.8114819 15.6999803,16.4821486 15.6999803,16.0748153 C15.6999803,15.6674819 15.572147,15.3381486 15.3164803,15.0868153 C15.0608137,14.8354819 14.7249803,14.7098153 14.3089803,14.7098153 C13.8929803,14.7098153 13.557147,14.8354819 13.3014803,15.0868153 C13.0458137,15.3381486 12.9179803,15.6674819 12.9179803,16.0748153 C12.9179803,16.4821486 13.0458137,16.8114819 13.3014803,17.0628153 C13.557147,17.3141486 13.8929803,17.4398153 14.3089803,17.4398153 Z"/></g></g><g stroke="none" stroke-width="1" fill="none" fill-rule="evenodd" id="icon-service-ag"><polygon fill="url(#gradient-ag)" fill-rule="nonzero" points="0 0 48 0 48 48 0 48"/><g transform="translate(8.250000, 9.107143)" fill="#FFFFFF"><path d="M12.5357143,23.6785325 L14.625,23.6785325 L14.625,22.2856676 L12.5357143,22.2856676 L12.5357143,23.6785325 Z M16.0178571,23.6785325 L18.1071429,23.6785325 L18.1071429,22.2856676 L16.0178571,22.2856676 L16.0178571,23.6785325 Z M12.5357143,8.35701836 L14.625,8.35701836 L14.625,6.96415343 L12.5357143,6.96415343 L12.5357143,8.35701836 Z M16.0178571,8.35701836 L18.1071429,8.35701836 L18.1071429,6.96415343 L16.0178571,6.96415343 L16.0178571,8.35701836 Z M8.35714286,1.90875019 L1.39285714,5.97104074 L1.39285714,25.3374346 L8.35714286,28.819597 L8.35714286,1.90875019 Z M9.75,6.96415343 L11.1428571,6.96415343 L11.1428571,8.35701836 L9.75,8.35701836 L9.75,22.2856676 L11.1428571,22.2856676 L11.1428571,23.6785325 L9.75,23.6785325 L9.75,29.9464247 C9.75,30.1880867 9.62464286,30.4116416 9.41919643,30.5390887 C9.30776786,30.6080355 9.18101786,30.6428571 9.05357143,30.6428571 C8.94701786,30.6428571 8.84046429,30.618482 8.74226786,30.5697317 L0.385125,26.391137 C0.149035714,26.2727434 0,26.0317778 0,25.7678299 L0,5.57128851 C0,5.32405498 0.130928571,5.09423227 0.345428571,4.96957086 L8.70257143,0.0945436247 C8.91776786,-0.0308142184 9.1845,-0.0315106509 9.40039286,0.0924543274 C9.61698214,0.216419306 9.75,0.446938451 9.75,0.696261272 L9.75,6.96415343 Z M29.25,5.97104074 L22.2857143,1.90875019 L22.2857143,28.819597 L29.25,25.3374346 L29.25,5.97104074 Z M30.6428571,5.57128851 L30.6428571,25.7678299 C30.6428571,26.0317778 30.4938214,26.2727434 30.2577321,26.391137 L21.9005893,30.5697317 C21.8023929,30.618482 21.6958393,30.6428571 21.5892857,30.6428571 C21.4618393,30.6428571 21.3350893,30.6080355 21.2236607,30.5390887 C21.0182143,30.4116416 20.8928571,30.1880867 20.8928571,29.9464247 L20.8928571,23.6785325 L19.5,23.6785325 L19.5,22.2856676 L20.8928571,22.2856676 L20.8928571,8.35701836 L19.5,8.35701836 L19.5,6.96415343 L20.8928571,6.96415343 L20.8928571,0.696261272 C20.8928571,0.446938451 21.025875,0.216419306 21.2424643,0.0924543274 C21.4583571,-0.0308142184 21.7250893,-0.0308142184 21.9402857,0.0945436247 L30.2974286,4.96957086 C30.5119286,5.09423227 30.6428571,5.32405498 30.6428571,5.57128851 L30.6428571,5.57128851 Z M17.3682321,12.0773606 L16.0603393,11.6010008 L13.274625,19.2617578 L14.5825179,19.7381177 L17.3682321,12.0773606 Z M20.6888036,15.8137207 C20.9611071,15.5414156 20.9611071,15.1012703 20.6888036,14.8289652 L18.5995179,12.7396678 L17.6147679,13.7244233 L19.2116786,15.321343 L17.6147679,16.9182626 L18.5995179,17.9030181 L20.6888036,15.8137207 Z M12.0433393,17.9030181 L9.95405357,15.8137207 C9.68175,15.5414156 9.68175,15.1012703 9.95405357,14.8289652 L12.0433393,12.7396678 L13.0280893,13.7244233 L11.4311786,15.321343 L13.0280893,16.9182626 L12.0433393,17.9030181 Z"/></g></g><g stroke="none" stroke-width="1" fill="none" fill-rule="evenodd" id="icon-service-ddb"><polygon fill="url(#gradient-blue)" fill-rule="nonzero" points="0 0 48 0 48 48 0 48"/><path d="M34.5810287,19.5947556 L32.1910412,19.5947556 C31.9723757,19.5947556 31.7677101,19.4862534 31.6430441,19.3049671 C31.5183781,19.1230069 31.4897116,18.8911762 31.5670445,18.6842807 L33.2290358,14.2033421 L27.287067,14.2033421 L24.559748,20.2686823 L27.5243991,20.2686823 C27.738398,20.2686823 27.9397302,20.372467 28.0657296,20.5490358 C28.1903956,20.7242568 28.2250621,20.9500222 28.1563958,21.1555699 L25.7164086,28.5559589 L34.5810287,19.5947556 Z M36.6616844,19.3972951 L24.6624141,31.5279756 C24.5344148,31.6580435 24.3630824,31.7254361 24.1910833,31.7254361 C24.0697506,31.7254361 23.9490845,31.6924137 23.8410851,31.6250211 C23.5777532,31.4605829 23.4604204,31.1350764 23.5590866,30.8385486 L26.5990706,21.6165357 L23.5244201,21.6165357 C23.2977546,21.6165357 23.0870891,21.4999464 22.9637564,21.3078773 C22.841757,21.1144603 22.8237571,20.8725206 22.9177566,20.6636034 L26.2510724,13.2504097 C26.3590719,13.0098179 26.5957373,12.8554887 26.8577359,12.8554887 L34.1910307,12.8554887 C34.4096962,12.8554887 34.6143618,12.9639909 34.7390278,13.1452772 C34.8636938,13.3272374 34.8923603,13.5590681 34.8156941,13.7659636 L33.1530362,18.2469022 L36.1903535,18.2469022 C36.4596854,18.2469022 36.7036842,18.4113403 36.8063503,18.662715 C36.9096831,18.9147636 36.85235,19.2045521 36.6616844,19.3972951 L36.6616844,19.3972951 Z M30.8577149,32.241664 C29.0510577,33.4992112 25.7330752,34.163029 22.5457586,34.163029 C19.3351088,34.163029 15.9877931,33.4904502 14.1904692,32.214033 L14.1911358,34.7581063 C14.1911358,35.8673896 17.3697858,37.4140514 22.5457586,37.4140514 C27.542399,37.4140514 30.8577149,35.6126453 30.8577149,34.4211429 L30.8577149,32.241664 Z M32.2337077,30.0621851 C32.2337077,30.1868615 32.2123744,30.3068204 32.1910412,30.4261055 L32.1910412,34.4211429 C32.1910412,36.8149305 27.8643973,38.7619048 22.5457586,38.7619048 C17.9437828,38.7619048 13.2984739,37.5023358 12.8971426,35.0950696 L12.8578095,35.0950696 L12.8571429,31.7254361 L12.8571429,22.9643891 L12.8571429,13.5294154 L12.8578095,13.5294154 C12.8578095,10.8653831 17.8491166,9.42857143 22.5457586,9.42857143 C25.1730781,9.42857143 27.6990648,9.85516703 29.4770555,10.5991821 L28.9663915,11.8445986 C27.3450667,11.1652805 25.0044123,10.7764248 22.5457586,10.7764248 C17.3697858,10.7764248 14.1911358,12.3796964 14.1911358,13.5294154 C14.1911358,14.6791343 17.3697858,16.2824059 22.5457586,16.2824059 C22.6757579,16.2824059 22.8117572,16.2830798 22.9430898,16.2776884 L22.9950896,17.624194 C22.8450903,17.6302593 22.6957578,17.6302593 22.5457586,17.6302593 C19.3344421,17.6302593 15.9877931,16.9576805 14.1904692,15.6812633 L14.1904692,18.5865613 L14.1911358,18.5865613 L14.1911358,18.598018 C14.1944692,18.9511556 14.5171341,19.3602291 15.1004644,19.7443674 C16.4217908,20.60295 18.8004449,21.1899401 21.4597643,21.3119208 L21.399098,22.6584264 C18.6484457,22.5317282 16.2324584,21.9460859 14.6751333,21.0477416 C14.4684677,21.24655 14.1911358,21.751995 14.1911358,22.0256092 C14.1911358,23.1753282 17.3697858,24.7785998 22.5457586,24.7785998 C23.037756,24.7785998 23.5224201,24.7617516 23.9870843,24.7287292 L24.0810839,26.0732129 C23.5850865,26.1089311 23.0684225,26.1264532 22.5457586,26.1264532 C19.3344421,26.1264532 15.9877931,25.4538743 14.1904692,24.1774572 L14.1904692,26.6238111 L14.1911358,26.6238111 C14.1944692,26.9884054 14.5171341,27.3974789 15.1004644,27.7816171 C16.6124564,28.7648762 19.4664414,29.3774755 22.5457586,29.3774755 L22.7657574,29.3774755 L22.7657574,30.7253289 L22.5457586,30.7253289 C19.360442,30.7253289 15.9724598,30.053424 14.1911358,29.0297294 C13.9764703,29.2285377 14.1911358,29.7036561 14.1911358,30.0621851 C14.1911358,31.211904 17.3697858,32.8151756 22.5457586,32.8151756 C27.722398,32.8151756 30.9003813,31.211904 30.9003813,30.0621851 C30.9003813,29.6558073 30.5010501,29.2790822 30.1723852,29.0364686 C29.8997199,29.2009067 29.5997215,29.3586056 29.2577233,29.5028259 L28.745726,28.2580833 C29.0997241,28.1091455 29.4057225,27.9494249 29.6550545,27.7836389 C30.3890507,27.2943681 30.8577149,26.5982018 30.8577149,26.3340226 L32.1910412,26.3340226 C32.1910412,26.9607744 31.7770434,27.6320054 31.2463795,28.1839514 C32.041042,28.8774219 32.2337077,29.5695446 32.2337077,30.0621851 L32.2337077,30.0621851 Z M14.9517985,35.0209377 C15.4791291,35.2932041 16.0957925,35.5358177 16.7864555,35.7413653 L17.1624536,34.4481 C16.5517901,34.2668137 16.0117929,34.0552007 15.558462,33.8206742 L14.9517985,35.0209377 Z M16.7864555,27.654245 L17.1624536,26.3616536 C16.5517901,26.1796934 16.0117929,25.9687543 15.558462,25.7342278 L14.9517985,26.9338173 C15.4791291,27.2067576 16.0957925,27.4486973 16.7864555,27.654245 L16.7864555,27.654245 Z M14.9517985,18.8473709 L15.558462,17.6471075 C16.0117929,17.881634 16.5517901,18.092573 17.1624536,18.2745332 L16.7864555,19.5677986 C16.0957925,19.3622509 15.4791291,19.1196373 14.9517985,18.8473709 L14.9517985,18.8473709 Z" fill="#FFFFFF"/></g></defs></g><style data-styled="true" data-styled-version="5.2.3">.eRnhep{cursor:pointer;}/*!sc*/
data-styled.g6[id="sc-jRQAMF"]{content:"eRnhep,"}/*!sc*/
.hSDKox{stroke:#555;background-color:#555;stroke-width:1px;}/*!sc*/
data-styled.g7[id="sc-gKckTs"]{content:"hSDKox,"}/*!sc*/
.lkLLxz{fill:var(--color-text-form-secondary-2zuvDp,#687078);}/*!sc*/
data-styled.g9[id="sc-furvIG"]{content:"lkLLxz,"}/*!sc*/
.cGjrSs{font-weight:400;font-size:12px;line-height:16px;font-family:Amazon Ember,Arial,Roboto,Arial,sans-serif;text-shadow:none;fill:var(--color-text-body-default-fgLpHn,#16191f);}/*!sc*/
data-styled.g10[id="sc-pVTma"]{content:"cGjrSs,"}/*!sc*/
.enWSfS{fill:#fff9cc;stroke:var(--color-text-form-secondary-2zuvDp,#687078);stroke-width:0.6px;}/*!sc*/
data-styled.g11[id="sc-jrQzUz"]{content:"enWSfS,"}/*!sc*/
.fYdb{stroke-width:0;stroke:none;fill:#f2f3f3;}/*!sc*/
data-styled.g13[id="sc-iqsfdx"]{content:"fYdb,"}/*!sc*/
.STZed{font-size:10px;line-height:12.5;stroke:none;}/*!sc*/
data-styled.g14[id="sc-crHlIS"]{content:"STZed,"}/*!sc*/
</style><style>
.new-look-state-node &gt; rect:first-of-type {
  stroke: #687078;
  stroke-width: 1px;
  fill: #FFFFFF;
}

.new-look-state-node .error-icon circle {
 stroke-linejoin: round;
}

.new-look-state-node .error-icon circle, .new-look-state-node .error-icon path {
 stroke: var(--color-border-status-error-31wSg2, #d13212);
 fill: none;
 stroke-width: 2px;
}

.new-look-state-node.has-errors &gt; rect:first-of-type {
 stroke: var(--color-border-status-error-31wSg2, #d13212);
 fill: var(--color-background-status-error-3cOAi7, #fdf3f1);
}

.new-look-state-node .handle path {
  stroke: var(--color-border-dropdown-item-hover-9Qud2b, #879596);
  stroke-width: 1px;
  fill: none;
}

.new-look-state-node {
  font-weight: 400;
  font-family: Amazon Ember, Arial, Roboto, Arial, sans-serif;
  text-shadow: none;
}

.new-look-state-node .line1 {
  fill: #687078;
  font-size: 12px;
}

.selected &gt; .node &gt; .new-look-state-node &gt; rect,
.selected &gt; .node &gt; .new-look-state-node &gt; .new-look-state-node &gt; rect {
  stroke: var(--color-border-status-info-1Avj4-, #0073bb);
  fill: var(--color-background-status-info-2lIPTJ, #f1faff);
  stroke-width: 1px;
}

.selected &gt; .node &gt; .new-look-state-node.has-errors &gt; rect,
.selected &gt; .node &gt; .new-look-state-node.has-errors &gt; .new-look-state-node &gt; rect {
 stroke: var(--color-border-status-error-31wSg2, #d13212);
 fill: #fde0da;
}

.new-look-graph .drag-source {
  opacity: 0.2;
}

.new-look-graph .edge, .new-look-graph path.starting-connection {
  stroke-width: 1px;
  stroke: var(--color-text-form-secondary-2zuvDp, #687078);
  marker-end: url(#large-arrowhead);
}

.new-look-graph .edge-label rect {
  stroke-width: 1px;
  stroke: var(--color-border-control-default-31hYZM, #aab7b8);
  fill: var(--color-background-container-header-2Hjv9p, #fafafa);
}

.new-look-graph .edge-label .label {
  fill: var(--color-text-form-secondary-2zuvDp, #687078);
  font-family: Amazon Ember, Arial, Roboto, Arial, sans-serif;
}

.new-look-graph .edge path {
  marker-end: url(#large-arrowhead) !important;
}

.new-look-graph .edge.dragging-over path, .new-look-graph  g.dragging-over .starting-connection {
  stroke: #5C86FF;
  stroke-width: 2px;
}

.new-look-graph .edge.dragging-over path, .new-look-graph .dragging-over path.starting-connection {
  marker-end: url(#large-highlighted-arrowhead) !important;
}

.new-look-graph .edge.dragging-over .edge-label text {
  fill: #5C86FF;
}

#large-highlighted-arrowhead {
  fill: #5C86FF;
}

#large-highlighted-arrowhead path {
  stroke: none;
}

.new-look-graph .edge.drop-not-supported path, g.drop-not-supported .starting-connection {
  stroke: red;
}

.new-look-graph .edge.drop-not-supported .edge-label text {
  fill: red;
}

.new-look-graph .edge.drop-not-supported path {
  marker-end: url(#large-error-arrowhead) !important;
}

#large-error-arrowhead {
  fill: red;
}


.node.Placeholder.dragging-over rect {
  stroke: var(--color-border-status-info-1Avj4-, #0073bb);
  fill: var(--color-background-status-info-2lIPTJ, #f1faff);
  stroke-width: 2px;
}

.node.Placeholder.dragging-over .label {
  fill: var(--color-text-status-info-2YM3rg, #0073bb);
}

g.Placeholder rect {
  stroke-dasharray: 5 4;
  stroke: var(--color-border-dropdown-item-hover-9Qud2b, #879596);
  fill: var(--color-background-control-default-1CAayK, #ffffff);
  stroke-width: 1px;
}

g.Placeholder .label {
  font-style: italic;
  fill: var(--color-text-input-placeholder-3rku1q, #aab7b8);
}

.node.Placeholder.drop-not-supported rect {
  stroke: red;
}

.node.Placeholder.drop-not-supported .label {
  fill: red;
}
</style><style>.line2 { font-size: 14px }</style></svg>